HIERARCHY
ROOT Hips
{
	OFFSET 0.00000 0.00000 0.00000
	CHANNELS 6 Xposition Yposition Zposition Zrotation Yrotation Xrotation 
	JOINT LHipJoint
	{
		OFFSET 0 0 0
		CHANNELS 3 Zrotation Yrotation Xrotation
		JOINT LeftHip
		{
			OFFSET 1.58161 -1.81893 0.78828
			CHANNELS 3 Zrotation Yrotation Xrotation
			JOINT LeftKnee
			{
				OFFSET 2.53374 -6.96141 0.00000
				CHANNELS 3 Zrotation Yrotation Xrotation
				JOINT LeftAnkle
				{
					OFFSET 2.63509 -7.23986 0.00000
					CHANNELS 3 Zrotation Yrotation Xrotation
					JOINT LeftToe
					{
						OFFSET 0.14115 -0.38781 2.05350
						CHANNELS 3 Zrotation Yrotation Xrotation
						End Site
						{
							OFFSET 0.00000 -0.00000 1.05543
						}
					}
				}
			}
		}
	}
	JOINT RHipJoint
	{
		OFFSET 0 0 0
		CHANNELS 3 Zrotation Yrotation Xrotation
		JOINT RightHip
		{
			OFFSET -1.11138 -1.81893 0.78828
			CHANNELS 3 Zrotation Yrotation Xrotation
			JOINT RightKnee
			{
				OFFSET -2.58392 -7.09926 0.00000
				CHANNELS 3 Zrotation Yrotation Xrotation
				JOINT RightAnkle
				{
					OFFSET -2.66423 -7.31992 0.00000
					CHANNELS 3 Zrotation Yrotation Xrotation
					JOINT RightToe
					{
						OFFSET -0.18831 -0.51739 2.12114
						CHANNELS 3 Zrotation Yrotation Xrotation
						End Site
						{
							OFFSET -0.00000 -0.00000 1.09845
						}
					}
				}
			}
		}
	}
	JOINT lowerback
	{
		OFFSET 0 0 0
		CHANNELS 3 Zrotation Yrotation Xrotation
		JOINT Chest
		{
			OFFSET -0.01511 1.97958 -0.08829
			CHANNELS 3 Zrotation Yrotation Xrotation
			JOINT Chest2
			{
				OFFSET 0.08344 1.97334 -0.04330
				CHANNELS 3 Zrotation Yrotation Xrotation
				JOINT lowerneck
				{
					OFFSET 0 0 0
					CHANNELS 3 Zrotation Yrotation Xrotation
					JOINT Neck
					{
						OFFSET 0.00559 1.76246 0.31246
						CHANNELS 3 Zrotation Yrotation Xrotation
						JOINT Head
						{
							OFFSET -0.07011 1.80354 -0.30524
							CHANNELS 3 Zrotation Yrotation Xrotation
							End Site
							{
								OFFSET -0.02385 1.83547 -0.13906
							}
						}
					}
				}
				JOINT LeftCollar
				{
					OFFSET 0 0 0
					CHANNELS 3 Zrotation Yrotation Xrotation
					JOINT LeftShoulder
					{
						OFFSET 3.20667 1.30156 -0.60240
CHANNELS 3 Zrotation Xrotation Yrotation
						JOINT LeftElbow
						{
OFFSET 0 -4.956630 0.000000
CHANNELS 3 Zrotation Xrotation Yrotation
							JOINT LeftWrist
							{
OFFSET 0 -3.381770 0.000000
CHANNELS 3 Zrotation Xrotation Yrotation
								JOINT lhand
								{
									OFFSET 0 0 0
CHANNELS 3 Zrotation Xrotation Yrotation
									JOINT LFingers
									{
OFFSET 0 -0.662910 0.000000
CHANNELS 3 Zrotation Xrotation Yrotation
										End Site
										{
OFFSET 0 -0.534450 0.000000
										}
									}
								}
								JOINT LThumb
								{
OFFSET 0 0.000000 0.000000
CHANNELS 3 Zrotation Xrotation Yrotation
									End Site
									{
OFFSET 0 -0.542610 0.542610
									}
								}
							}
						}
					}
				}
				JOINT RightCollar
				{
					OFFSET 0 0 0
					CHANNELS 3 Zrotation Yrotation Xrotation
					JOINT RightShoulder
					{
						OFFSET -3.06877 1.34672 -0.60964
CHANNELS 3 Zrotation Xrotation Yrotation
						JOINT RightElbow
						{
OFFSET 0 -5.083650 0.000000
CHANNELS 3 Zrotation Xrotation Yrotation
							JOINT RightWrist
							{
OFFSET 0 -3.359840 0.000000
CHANNELS 3 Zrotation Xrotation Yrotation
								JOINT rhand
								{
									OFFSET 0 0 0
CHANNELS 3 Zrotation Xrotation Yrotation
									JOINT RFingers
									{
OFFSET 0 -0.820760 0.000000
CHANNELS 3 Zrotation Xrotation Yrotation
										End Site
										{
OFFSET 0 -0.661720 0.000000
										}
									}
								}
								JOINT RThumb
								{
OFFSET 0 0.000000 0.000000
CHANNELS 3 Zrotation Xrotation Yrotation
									End Site
									{
OFFSET 0 -0.671820 0.671820
									}
								}
							}
						}
					}
				}
			}
		}
	}
}
MOTION
Frames: 11
Frame Time: 0.008333333333333333
-5.944786 17.794459 3.132319 -9.248867 31.681505 2.977729 0.000000 0.000000 0.000000 6.028563 18.968362 -7.338911 3.942922 12.084057 36.030023 -0.056804 13.442951 8.711263 3.497252 -11.459519 -33.845857 0.000000 0.000000 0.000000 25.821668 28.341804 -19.619028 -2.684142 -10.165261 29.513641 2.508066 26.696239 9.997054 -3.810334 -11.903592 35.391706 -15.331150 -9.862654 1.427185 -3.663349 -13.416920 -1.920284 4.327289 -6.470591 -0.298702 3.164267 22.232467 -5.638900 -12.415924 32.273890 13.971001 -1.107386 14.704690 7.816383 0.000000 0.000000 0.000000 250.866077 -41.668362 170.699807 24.113849 -35.284318 7.772267 20.186134 -0.032117 0.464047 0.000000 0.000000 0.000000 -7.125000 0.000000 0.000000 8.856181 -60.476168 -176.643979 0.000000 0.000000 0.000000 -67.937991 -40.545438 -33.235792 -127.712867 -53.877053 -91.988624 -65.366415 -25.419712 -11.347270 0.000000 0.000000 0.000000 7.125000 0.000000 0.000000 -24.084490 5.963259 -23.706191
-5.941487 17.795595 3.115834 -9.282723 31.872217 2.985735 0.000000 0.000000 0.000000 5.972712 18.954848 -7.483900 3.949504 12.092913 36.061419 -0.074138 13.265574 8.341316 3.471186 -11.421216 -33.714164 0.000000 0.000000 0.000000 25.766343 28.270090 -19.662000 -2.660416 -10.123914 29.378997 2.496706 26.646408 9.788149 -3.707266 -11.757902 34.883931 -15.299981 -9.861008 1.515488 -3.648325 -13.431692 -1.916954 4.343279 -6.475694 -0.344379 3.226753 22.222067 -5.512015 -12.464201 32.257445 13.947026 -1.142551 14.705230 7.804829 0.000000 0.000000 0.000000 251.044776 -41.737492 170.976168 23.976700 -35.139374 7.693269 19.760600 0.025487 0.225285 0.000000 0.000000 0.000000 -7.125000 0.000000 0.000000 9.373822 -60.219556 -176.503547 0.000000 0.000000 0.000000 -67.688819 -40.706718 -33.132599 -127.448028 -53.973943 -91.774536 -65.046026 -24.852014 -11.040719 0.000000 0.000000 0.000000 7.125000 0.000000 0.000000 -24.020584 6.760112 -23.224765
-5.937919 17.799241 3.099258 -9.321307 32.066973 2.994764 0.000000 0.000000 0.000000 5.913364 18.936020 -7.627465 3.954994 12.100291 36.087573 -0.095847 13.107569 7.922399 3.433384 -11.365557 -33.522941 0.000000 0.000000 0.000000 25.713280 28.241285 -19.700994 -2.638850 -10.086182 29.256196 2.488922 26.617015 9.438066 -3.540029 -11.521699 34.060418 -15.266122 -9.866872 1.611408 -3.626633 -13.458844 -1.921912 4.366047 -6.486006 -0.399943 3.269005 22.229724 -5.396370 -12.494056 32.263750 13.920366 -1.167369 14.716716 7.789550 0.000000 0.000000 0.000000 251.196522 -41.838281 171.193508 23.833359 -34.987555 7.610860 19.358176 0.015205 -0.019463 0.000000 0.000000 0.000000 -7.125000 0.000000 0.000000 9.853731 -59.958110 -176.382083 0.000000 0.000000 0.000000 -67.430743 -40.894120 -33.030052 -127.187117 -54.068808 -91.563467 -64.663561 -24.249236 -10.727865 0.000000 0.000000 0.000000 7.125000 0.000000 0.000000 -23.927065 7.608978 -22.680220
-5.934646 17.800877 3.081442 -9.390150 32.263502 3.001369 0.000000 0.000000 0.000000 5.867550 18.896509 -7.759151 3.954752 12.099927 36.086482 -0.130026 12.989336 7.325418 3.319818 -11.194420 -32.939778 0.000000 0.000000 0.000000 25.680191 28.216500 -19.793532 -2.624730 -10.061275 29.175354 2.477711 26.573261 9.150333 -3.387920 -11.295778 33.286725 -15.218611 -9.869781 1.652071 -3.583607 -13.464662 -1.873976 4.388106 -6.494308 -0.369400 3.192587 22.254873 -5.451638 -12.427759 32.293990 13.939152 -1.133857 14.729442 7.783490 0.000000 0.000000 0.000000 251.245790 -41.958513 171.213991 23.710703 -34.856656 7.540684 18.885306 -0.153993 -0.227688 0.000000 0.000000 0.000000 -7.125000 0.000000 0.000000 10.431743 -59.736674 -176.224096 0.000000 0.000000 0.000000 -67.230821 -41.108709 -32.967633 -127.006283 -54.133651 -91.416934 -64.452245 -25.654270 -11.121711 0.000000 0.000000 0.000000 7.125000 0.000000 0.000000 -23.687691 7.019209 -22.701188
-5.932146 17.801559 3.063375 -9.481356 32.464617 2.996940 0.000000 0.000000 0.000000 5.841602 18.883561 -7.907139 3.954146 12.099110 36.083620 -0.151536 12.770909 6.817735 3.267622 -11.116053 -32.672389 0.000000 0.000000 0.000000 25.651304 28.209923 -19.888772 -2.612426 -10.039547 29.104888 2.453694 26.461031 8.971694 -3.298680 -11.163468 32.833324 -15.156206 -9.862836 1.678249 -3.535993 -13.452384 -1.807877 4.404170 -6.496299 -0.316629 3.113036 22.259180 -5.493965 -12.375425 32.294010 13.941137 -1.110425 14.729045 7.769369 0.000000 0.000000 0.000000 251.314335 -42.048798 171.253591 23.585004 -34.722171 7.468942 18.499395 -0.237254 -0.412890 0.000000 0.000000 0.000000 -7.125000 0.000000 0.000000 10.896596 -59.540508 -176.103163 0.000000 0.000000 0.000000 -67.026470 -41.300342 -32.875721 -126.796411 -54.208370 -91.246765 -64.425426 -27.442942 -11.621428 0.000000 0.000000 0.000000 7.125000 0.000000 0.000000 -23.511799 6.114506 -22.943457
-5.930934 17.800650 3.044892 -9.609891 32.673387 2.974094 0.000000 0.000000 0.000000 5.848813 18.914952 -8.082336 3.952934 12.097534 36.077803 -0.151900 12.385244 6.459098 3.317860 -11.192532 -32.932064 0.000000 0.000000 0.000000 25.629427 28.233739 -19.988521 -2.603154 -10.023124 29.051741 2.408304 26.234504 8.975148 -3.314376 -11.187406 32.914529 -15.068940 -9.839444 1.680249 -3.480725 -13.409903 -1.711461 4.410231 -6.487754 -0.226758 3.028256 22.228697 -5.514690 -12.346397 32.243590 13.915079 -1.103820 14.706744 7.741796 0.000000 0.000000 0.000000 251.415054 -42.089098 171.325101 23.454227 -34.581698 7.394584 18.258627 -0.177078 -0.559666 0.000000 0.000000 0.000000 -7.125000 0.000000 0.000000 11.172573 -59.386521 -176.044077 0.000000 0.000000 0.000000 -66.814731 -41.453663 -32.734581 -126.538069 -54.299575 -91.037146 -64.706554 -29.871951 -12.297856 0.000000 0.000000 0.000000 7.125000 0.000000 0.000000 -23.441865 4.684140 -23.555103
-5.930073 17.801234 3.024872 -9.722971 32.907712 2.961477 0.000000 0.000000 0.000000 5.825422 18.972907 -8.309343 3.954488 12.099603 36.085113 -0.142999 11.978284 6.233410 3.446735 -11.382904 -33.585317 0.000000 0.000000 0.000000 25.579362 28.232572 -20.106930 -2.594760 -10.008194 29.003336 2.370027 26.044069 8.912436 -3.286473 -11.144781 32.769880 -14.982597 -9.813286 1.742181 -3.430726 -13.378047 -1.636252 4.424940 -6.479736 -0.192253 2.999148 22.195888 -5.546349 -12.370144 32.201468 13.905705 -1.110254 14.683696 7.740347 0.000000 0.000000 0.000000 251.554849 -42.103669 171.467255 23.311639 -34.427614 7.313860 18.073796 0.017936 -0.765540 0.000000 0.000000 0.000000 -7.125000 0.000000 0.000000 11.351078 -59.172733 -176.038250 0.000000 0.000000 0.000000 -66.571554 -41.571946 -32.519503 -126.208730 -54.414050 -90.769395 -65.059030 -32.220305 -12.943682 0.000000 0.000000 0.000000 7.125000 0.000000 0.000000 -23.422863 3.253599 -24.204069
-5.929319 17.802377 3.004083 -9.828912 33.153528 2.953445 0.000000 0.000000 0.000000 5.788434 19.039479 -8.556316 3.956932 12.102845 36.096662 -0.133375 11.595015 6.038877 3.589819 -11.593584 -34.309086 0.000000 0.000000 0.000000 25.517799 28.216462 -20.235671 -2.586773 -9.993967 28.957175 2.336473 25.878260 8.811655 -3.233837 -11.063802 32.495784 -14.899529 -9.788803 1.832351 -3.380954 -13.355572 -1.574952 4.447437 -6.473794 -0.186079 2.992796 22.165994 -5.576651 -12.411309 32.168091 13.907011 -1.120737 14.663227 7.749602 0.000000 0.000000 0.000000 251.710053 -42.116619 171.645503 23.163420 -34.267011 7.230121 17.885704 0.242312 -0.998193 0.000000 0.000000 0.000000 -7.125000 0.000000 0.000000 11.523244 -58.931921 -176.043680 0.000000 0.000000 0.000000 -66.311681 -41.682492 -32.267373 -125.852405 -54.537147 -90.479495 -65.422187 -34.458919 -13.550393 0.000000 0.000000 0.000000 7.125000 0.000000 0.000000 -23.423340 1.884794 -24.838031
-5.928228 17.803407 2.980994 -9.919147 33.421445 2.954051 0.000000 0.000000 0.000000 5.727045 19.087596 -8.806598 3.957356 12.103451 36.098844 -0.158585 11.607317 5.602974 3.537642 -11.518075 -34.048078 0.000000 0.000000 0.000000 25.446532 28.132590 -20.404688 -2.579682 -9.981423 28.916512 2.328050 25.848141 8.550222 -3.079729 -10.820489 31.679488 -14.852866 -9.798257 1.990338 -3.309081 -13.399569 -1.586406 4.525916 -6.491186 -0.270496 3.006189 22.183386 -5.538351 -12.419490 32.204270 13.962279 -1.119888 14.678377 7.768449 0.000000 0.000000 0.000000 251.872100 -42.231155 171.938630 23.001009 -34.089692 7.138977 17.392352 0.194074 -1.284473 0.000000 0.000000 0.000000 -7.125000 0.000000 0.000000 12.077743 -58.637763 -175.937204 0.000000 0.000000 0.000000 -65.992799 -41.862537 -31.904009 -125.496192 -54.657440 -90.189035 -65.580659 -35.713542 -13.815159 0.000000 0.000000 0.000000 7.125000 0.000000 0.000000 -23.425218 1.285086 -25.108675
-5.927626 17.804103 2.957390 -10.041673 33.701317 2.934809 0.000000 0.000000 0.000000 5.697202 19.134968 -9.053795 3.955543 12.101023 36.090228 -0.187189 11.630443 5.096190 3.458083 -11.401019 -33.645847 0.000000 0.000000 0.000000 25.398995 28.075662 -20.565245 -2.572515 -9.968647 28.875129 2.312145 25.781541 8.268864 -2.931303 -10.581058 30.881575 -14.796383 -9.814601 2.143851 -3.216512 -13.450275 -1.587241 4.617711 -6.513952 -0.336814 2.973896 22.196819 -5.512624 -12.417567 32.232581 14.001093 -1.114104 14.689645 7.774389 0.000000 0.000000 0.000000 252.031911 -42.370269 172.253661 22.846491 -33.920395 7.052512 16.869484 0.123468 -1.588594 0.000000 0.000000 0.000000 -7.125000 0.000000 0.000000 12.659160 -58.327075 -175.832528 0.000000 0.000000 0.000000 -65.696155 -42.084849 -31.589982 -125.159467 -54.770175 -89.914231 -65.566851 -36.064166 -13.743362 0.000000 0.000000 0.000000 7.125000 0.000000 0.000000 -23.440132 1.424707 -25.062886
-5.927686 17.804345 2.933089 -10.208022 33.997413 2.888631 0.000000 0.000000 0.000000 5.710170 19.181328 -9.296805 3.950695 12.094478 36.066957 -0.220398 11.668258 4.493210 3.341366 -11.227579 -33.051957 0.000000 0.000000 0.000000 25.383663 28.055300 -20.714324 -2.565243 -9.955557 28.832769 2.286086 25.665429 7.960466 -2.790587 -10.346896 30.108609 -14.726570 -9.840296 2.291293 -3.095856 -13.510088 -1.573666 4.727581 -6.544010 -0.378568 2.879601 22.204879 -5.503958 -12.401932 32.250216 14.017576 -1.101620 14.695645 7.762815 0.000000 0.000000 0.000000 252.188685 -42.542740 172.598421 22.702685 -33.761984 6.972397 16.306562 0.022507 -1.916930 0.000000 0.000000 0.000000 -7.125000 0.000000 0.000000 13.277108 -57.993951 -175.730294 0.000000 0.000000 0.000000 -65.429693 -42.364523 -31.342912 -124.849190 -54.872651 -89.660677 -65.319235 -35.187936 -13.214800 0.000000 0.000000 0.000000 7.125000 0.000000 0.000000 -23.472735 2.567703 -24.587653
